# xmcd
#
# Track frame offsets:
#	183
#	14755
#	29198
#	43010
#	56665
#	67878
#	83065
#	95058
#	113070
#	125813
#	142475
#	155290
#	172113
#	185833
#	197193
#	213640
#
# Disc length: 3022
#
# Revision: 1
# Processed by: cddbd v1.5.1PL0 Copyright (c) Steve Scherf et al.
# Submitted via: audiograbber 1.82.02
# Normalized: r0:DSETVAR1
#
DISCID=020bcc10
DTITLE=Various Artist - Trucker Hit-Exprsess CD 2
DYEAR=1900
DGENRE=Country
TTITLE0=Dave Dudley - Im Stau
TTITLE1=Tom Astor - Das letzt Hemd hat keine Taschen
TTITLE2=Ralf Paulsen - Ich bin ein Trucker auf dem Weg zu deinem Herzen
TTITLE3=Tom Astor - Pleite ( Ich bin pleite )
TTITLE4=Jim Erhardt - Die besten Straßen führen immer g´radeaus
TTITLE5=Ulla Norden - Du nimmst mich so wie ich bin
TTITLE6=Roland Worm - Unverhofft kommt oft
TTITLE7=Rafael - Ein Könidreich für ein WC
TTITLE8=Tom Astor - Ich freu mich auf zu Hause
TTITLE9=Rugy and Howard - Bitte komm gut heim
TTITLE10=Tom Astor - Seit wir zusasmmen fahren
TTITLE11=Dave Carpenter - Country Songs erzählen...
TTITLE12=Tom Astor - Tausend Traüme auf Asphalt
TTITLE13=Flohouse String Band - Die rote alte Lady
TTITLE14=Tom Astor - Trucker-Team
TTITLE15=Tom Astor - Komm nach Haus
EXTD=
EXTT0=
EXTT1=
EXTT2=
EXTT3=
EXTT4=
EXTT5=
EXTT6=
EXTT7=
EXTT8=
EXTT9=
EXTT10=
EXTT11=
EXTT12=
EXTT13=
EXTT14=
EXTT15=
PLAYORDER=
